<svg width="8" height="10" viewBox="0 0 8 10" fill="none" xmlns="http://www.w3.org/2000/svg">
<path d="M0.104413 6.50604L3.23232 9.84248C3.42887 10.0527 3.8699 10.0527 4.06642 9.84248L7.19434 6.50603C7.31268 6.37967 7.33145 6.21076 7.24333 6.06938C7.1547 5.928 6.97484 5.83875 6.77727 5.83875L5.21332 5.83875L5.21332 4.17054C5.21332 3.94033 4.98029 3.7535 4.69201 3.7535L2.60674 3.7535C2.31846 3.7535 2.08543 3.94033 2.08543 4.17055L2.08543 5.83876L0.521475 5.83876C0.323904 5.83876 0.143511 5.928 0.0549036 6.06938C-0.0332154 6.21076 -0.014448 6.37967 0.104413 6.50604Z" fill="#FFC876"/>
<path d="M2.6068 3.33655L4.69207 3.33655C4.98035 3.33655 5.21338 3.15013 5.21338 2.9195C5.21338 2.68888 4.98035 2.50245 4.69207 2.50245L2.6068 2.50245C2.31852 2.50245 2.08549 2.68888 2.08549 2.9195C2.08549 3.15013 2.31852 3.33655 2.6068 3.33655Z" fill="#FFC876"/>
<path d="M2.6068 2.08533L4.69207 2.08533C4.98035 2.08533 5.21338 1.8989 5.21338 1.66828C5.21338 1.43766 4.98035 1.25123 4.69207 1.25123L2.6068 1.25123C2.31852 1.25123 2.08549 1.43766 2.08549 1.66828C2.08549 1.8989 2.31852 2.08533 2.6068 2.08533Z" fill="#FFC876"/>
<path d="M2.6068 0.834107L4.69207 0.834106C4.98035 0.834106 5.21338 0.647684 5.21338 0.417059C5.21338 0.186435 4.98035 1.13453e-05 4.69207 1.13705e-05L2.6068 1.15528e-05C2.31852 1.1578e-05 2.08549 0.186435 2.08549 0.417059C2.08549 0.647684 2.31852 0.834107 2.6068 0.834107Z" fill="#FFC876"/>
</svg>
